<?xml version="1.0" encoding="UTF-8" standalone="no"?>
<svg
   width="70"
   height="70"
   viewBox="0 0 70 70"
   version="1.1"
   id="svg33"
   sodipodi:docname="icon.svg"
   inkscape:version="1.1.2 (0a00cf5339, 2022-02-04)"
   inkscape:export-filename="/home/hmulonga/attack/15/es/es_treasury/static/description/icon.png"
   inkscape:export-xdpi="192"
   inkscape:export-ydpi="192"
   xmlns:inkscape="http://www.inkscape.org/namespaces/inkscape"
   xmlns:sodipodi="http://sodipodi.sourceforge.net/DTD/sodipodi-0.dtd"
   xmlns:xlink="http://www.w3.org/1999/xlink"
   xmlns="http://www.w3.org/2000/svg"
   xmlns:svg="http://www.w3.org/2000/svg">
  <sodipodi:namedview
     id="namedview35"
     pagecolor="#ffffff"
     bordercolor="#666666"
     borderopacity="1.0"
     inkscape:pageshadow="2"
     inkscape:pageopacity="0.0"
     inkscape:pagecheckerboard="0"
     showgrid="false"
     inkscape:zoom="5.4649252"
     inkscape:cx="37.603442"
     inkscape:cy="39.890756"
     inkscape:window-width="1366"
     inkscape:window-height="705"
     inkscape:window-x="0"
     inkscape:window-y="34"
     inkscape:window-maximized="1"
     inkscape:current-layer="g31" />
  <defs
     id="defs12">
    <path
       id="a"
       d="M4 0h61c4 0 5 1 5 5v60c0 4-1 5-5 5H4c-3 0-4-1-4-5V5c0-4 1-5 4-5z" />
    <linearGradient
       id="c"
       x1="100%"
       x2="0%"
       y1="0%"
       y2="100%">
      <stop
         offset="0%"
         stop-color="#B06161"
         id="stop3" />
      <stop
         offset="45.785%"
         stop-color="#984E4E"
         id="stop5" />
      <stop
         offset="100%"
         stop-color="#7C3838"
         id="stop7" />
    </linearGradient>
    <path
       id="d"
       d="M41.8 27.25c-3.982-7.332-6.249-10.999-6.8-11-.55-.001-2.816 3.666-6.8 11-8.196 1.654-12.36 2.777-12.492 3.369-.111.496 2.652 3.74 8.29 9.733-1.061 8.252-1.387 12.544-.978 12.876.45.365 4.444-1.23 11.98-4.784 7.621 3.535 11.658 5.091 12.11 4.668.357-.334-.012-4.587-1.107-12.76 5.629-5.956 8.397-9.176 8.305-9.66-.117-.612-4.287-1.76-12.508-3.441zm.477 11.872l1.715 10.135L35 44.475V21.238l4.5 9.227 10.054 1.48-7.277 7.177z" />
    <path
       id="e"
       d="M41.8 25.25c-3.982-7.332-6.249-10.999-6.8-11-.55-.001-2.816 3.666-6.8 11-8.196 1.654-12.36 2.777-12.492 3.369-.111.496 2.652 3.74 8.29 9.733-1.061 8.252-1.387 12.544-.978 12.876.45.365 4.444-1.23 11.98-4.784 7.621 3.535 11.658 5.091 12.11 4.668.357-.334-.012-4.587-1.107-12.76 5.629-5.956 8.397-9.176 8.305-9.66-.117-.612-4.287-1.76-12.508-3.441zm.477 11.872l1.715 10.135L35 42.475V19.238l4.5 9.227 10.054 1.48-7.277 7.177z" />
  </defs>
  <g
     fill="none"
     fill-rule="evenodd"
     id="g31">
    <mask
       id="b"
       fill="#fff">
      <use
         xlink:href="#a"
         id="use14" />
    </mask>
    <g
       mask="url(#b)"
       id="g29"
       style="opacity:1">
      <path
         fill="url(#c)"
         d="M0 0H70V70H0z"
         id="path17" />
      <path
         fill="#FFF"
         fill-opacity=".383"
         d="M4 1h61c2.667 0 4.333.667 5 2V0H0v3c.667-1.333 2-2 4-2z"
         id="path19" />
      <path
         fill="#393939"
         d="M31.322 69H4c-2 0-4-1-4-4l.069-22.987 15.763-13.48 4.38.119L35 14.287 41 27l13.21 1.892-9.676 13.121 2.564 9.042L31.322 69z"
         opacity=".324"
         id="path21" />
      <path
         fill="#000"
         fill-opacity=".383"
         d="M4 69h61c2.667 0 4.333-1 5-3v4H0v-4c.667 2 2 3 4 3z"
         id="path23" />
      <path
         id="rect123"
         style="fill:#ffffff;stroke-width:10.1479;paint-order:stroke fill markers"
         d="M 35.450627,9.583942 58.993624,31.31457 v 0 H 12.351835 Z"
         sodipodi:nodetypes="ccccc" />
      <rect
         style="fill:#ffffff;stroke-width:9.17618;paint-order:stroke fill markers"
         id="rect608"
         width="9.7725668"
         height="29.761904"
         x="17.206955"
         y="27.352243" />
      <rect
         style="fill:#ffffff;stroke-width:9.17618;paint-order:stroke fill markers"
         id="rect690"
         width="9.7725668"
         height="29.761904"
         x="44.365936"
         y="27.352243" />
      <rect
         style="fill:#ffffff;stroke-width:9.17618;paint-order:stroke fill markers"
         id="rect714"
         width="57.746979"
         height="6.6631131"
         x="6.5771375"
         y="51.339451" />
      <rect
         style="opacity:1;fill:#ffffff;fill-opacity:1;stroke-width:3.90689;paint-order:stroke fill markers"
         id="rect28525"
         width="45.409"
         height="7.3442469"
         x="12.611935"
         y="43.995201" />
    </g>
    <text
       xml:space="preserve"
       style="font-style:normal;font-variant:normal;font-weight:bold;font-stretch:normal;font-size:8.44572px;line-height:1.25;font-family:'Latin Modern Roman';-inkscape-font-specification:'Latin Modern Roman,  Bold';fill:#974d4d;fill-opacity:1;stroke:none;stroke-width:0.211142"
       x="24.877867"
       y="28.793545"
       id="text2701"><tspan
         sodipodi:role="line"
         id="tspan2699"
         x="24.877867"
         y="28.793545"
         style="font-style:normal;font-variant:normal;font-weight:bold;font-stretch:normal;font-family:'Latin Modern Roman';-inkscape-font-specification:'Latin Modern Roman,  Bold';fill:#974d4d;fill-opacity:1;stroke-width:0.211142">AOA</tspan></text>
  </g>
</svg>
